<svg xmlns="http://www.w3.org/2000/svg" version="1.1" xmlns:xlink="http://www.w3.org/1999/xlink" xmlns:svgjs="http://svgjs.dev/svgjs" width="1500" height="1500" viewBox="0 0 1500 1500"><rect width="1500" height="1500" fill="#ffffff"></rect><g transform="matrix(0.6666666666666666,0,0,0.6666666666666666,249.39393939393938,631.1765990551165)"><svg viewBox="0 0 396 94" data-background-color="#575c5f" preserveAspectRatio="xMidYMid meet" height="356" width="1500" xmlns="http://www.w3.org/2000/svg" xmlns:xlink="http://www.w3.org/1999/xlink"><g id="tight-bounds" transform="matrix(1,0,0,1,0.2400000000000091,0.06207734052969727)"><svg viewBox="0 0 395.52 93.87584531894062" height="93.87584531894062" width="395.52"><g><svg viewBox="0 0 534.2435749401652 126.80159588319381" height="93.87584531894062" width="395.52"><g><rect width="8.274311704770888" height="110.10268817643454" x="108.78876139044431" y="8.349453853379636" fill="#000000" opacity="1" stroke-width="0" stroke="transparent" fill-opacity="1" class="rect-qz-0" data-fill-palette-color="primary" rx="1%" id="qz-0" data-palette-color="#dedad7"></rect></g><g transform="matrix(1,0,0,1,138.72357494016518,17.524677868082513)"><svg viewBox="0 0 395.52 91.75224014702879" height="91.75224014702879" width="395.52"><g id="textblocktransform"><svg viewBox="0 0 395.52 91.75224014702879" height="91.75224014702879" width="395.52" id="textblock"><g><svg viewBox="0 0 395.52 91.75224014702879" height="91.75224014702879" width="395.52"><g transform="matrix(1,0,0,1,0,0)"><svg width="395.52" viewBox="2.95 -43.65 244.84 56.79999999999999" height="91.75224014702879" data-palette-color="#dedad7"><path d="M30.55-23.1L24.65-23.1Q26.05-21.1 26.05-18.6L26.05-18.6Q26.05-16.4 24.8-14.28 23.55-12.15 21.45-10.55 19.35-8.95 16.85-8.15L16.85-8.15Q15.5-6.8 15.5-5.3L15.5-5.3Q15.5-4.45 16.82-3.73 18.15-3 20.75-2L20.75-2Q24.3-0.6 26.23 0.58 28.15 1.75 28.15 3.45L28.15 3.45Q28.15 4.95 26.23 7.3 24.3 9.65 21.45 11.4 18.6 13.15 15.95 13.15L15.95 13.15Q13.15 13.15 9.33 12.2 5.5 11.25 2.95 10.3L2.95 10.3 2.95 2.6 4.85 2.6Q7.65 6.05 10.55 7.85 13.45 9.65 17.1 9.65L17.1 9.65Q18.45 9.65 19.58 9.1 20.7 8.55 21.33 7.73 21.95 6.9 21.95 6.15L21.95 6.15Q21.95 4.8 20.4 3.83 18.85 2.85 15.55 1.45L15.55 1.45Q12.4 0.15 10.88-0.8 9.35-1.75 9.35-3L9.35-3Q9.35-4.2 10.95-5.45 12.55-6.7 14.75-7.65L14.75-7.65Q13.95-7.5 13.1-7.5L13.1-7.5Q10.45-7.5 8.25-8.68 6.05-9.85 4.78-11.8 3.5-13.75 3.5-16.05L3.5-16.05Q3.5-18.8 5.4-21.35 7.3-23.9 10.33-25.48 13.35-27.05 16.5-27.05L16.5-27.05Q20-27.05 22.65-25.05L22.65-25.05 30.5-25.05 30.55-23.1ZM16-11.8Q18.25-11.8 19.43-12.93 20.6-14.05 20.6-16.25L20.6-16.25Q20.6-19.25 18.68-21.1 16.75-22.95 13.6-22.95L13.6-22.95Q11.4-22.95 10.23-21.88 9.05-20.8 9.05-18.6L9.05-18.6Q9.05-15.55 10.98-13.68 12.9-11.8 16-11.8L16-11.8ZM60.8-2L59.8 0 50.3 0 50.3-4.35 44.65 0.1Q43.65 0.5 42.15 0.5L42.15 0.5Q37.85 0.5 35.92-1.65 34-3.8 34-6.8L34-6.8Q34-8.6 35.3-10.35 36.6-12.1 39-13.65L39-13.65 50.3-13.65 50.3-16.85Q50.3-20.1 48.57-21.45 46.85-22.8 43.85-22.8L43.85-22.8Q40.75-22.8 36.25-19.05L36.25-19.05 34.75-20.95 41.95-26.65Q43.95-27.05 46.75-27.05L46.75-27.05Q51.3-27.05 53.8-24.83 56.3-22.6 56.3-18.35L56.3-18.35 56.3-3.75 60.8-2ZM43.75-3.75Q46.8-3.75 50.3-6.55L50.3-6.55 50.3-11.6 41.45-11.6Q40.8-10.8 40.52-10 40.25-9.2 40.25-8.25L40.25-8.25Q40.25-6.4 41.2-5.08 42.15-3.75 43.75-3.75L43.75-3.75ZM112.8-2L111.8 0 102.3 0 102.3-16.85Q102.3-19.6 101.45-20.7 100.59-21.8 98.4-21.8L98.4-21.8Q96.84-21.8 95.34-21.23 93.84-20.65 91.8-18.95L91.8-18.95 91.8-3.75 96.3-2 95.3 0 85.8 0 85.8-16.85Q85.8-19.6 84.95-20.7 84.09-21.8 81.9-21.8L81.9-21.8Q80.34-21.8 78.84-21.23 77.34-20.65 75.3-18.95L75.3-18.95 75.3-3.75 79.8-2 78.8 0 64.84 0 64.84-1.55 69.3-5.05 69.3-19.2 64.84-21.8 64.84-23.35 73.4-27.55 75-21.15 81.65-26.7Q82.7-27.1 84.4-27.1L84.4-27.1Q87.3-27.1 89.2-25.53 91.09-23.95 91.59-21.2L91.59-21.2 98.09-26.65Q99.15-27.05 100.84-27.05L100.84-27.05Q104.25-27.05 106.25-24.98 108.25-22.9 108.25-19.35L108.25-19.35 108.25-3.75 112.8-2ZM142.64-6.9L133.79 0.1Q131.79 0.5 128.99 0.5L128.99 0.5Q125.69 0.5 123.07-1.23 120.44-2.95 118.97-5.9 117.49-8.85 117.49-12.4L117.49-12.4Q117.49-16.25 119.84-19.63 122.19-23 125.72-25.03 129.24-27.05 132.54-27.05L132.54-27.05Q137.29-27.05 139.92-23.3 142.54-19.55 142.54-13.4L142.54-13.4 124.04-13.4Q124.34-9.15 126.37-6.45 128.39-3.75 131.89-3.75L131.89-3.75Q135.14-3.75 141.14-8.8L141.14-8.8 142.64-6.9ZM129.64-22.85Q124.24-22.85 123.99-15.45L123.99-15.45 135.69-15.45Q135.24-18.15 134.77-19.58 134.29-21 133.12-21.93 131.94-22.85 129.64-22.85L129.64-22.85ZM179.84-2L178.84 0 169.34 0 169.34-16.85Q169.34-19.6 168.49-20.7 167.64-21.8 165.44-21.8L165.44-21.8Q163.79-21.8 162.17-21.2 160.54-20.6 158.34-18.9L158.34-18.9 158.34-3.75 162.84-2 161.84 0 147.89 0 147.89-1.55 152.34-5.05 152.34-35.8 147.89-38.9 147.89-40.45 156.44-43.65 158.34-43.65 158.34-21.25 165.19-26.65Q166.24-27.05 167.94-27.05L167.94-27.05Q171.34-27.05 173.34-24.98 175.34-22.9 175.34-19.35L175.34-19.35 175.34-3.75 179.84-2ZM214.29-2L213.29 0 203.79 0 203.79-5.2 197.44 0.1Q196.39 0.5 194.69 0.5L194.69 0.5Q191.29 0.5 189.29-1.58 187.29-3.65 187.29-7.2L187.29-7.2 187.29-19.15 182.84-21.75 182.84-23.3 191.39-27.5 193.29-27.5 193.29-9.7Q193.29-6.95 194.14-5.85 194.99-4.75 197.19-4.75L197.19-4.75Q198.74-4.75 200.24-5.33 201.74-5.9 203.79-7.6L203.79-7.6 203.79-19.15 199.34-21.75 199.34-23.3 207.89-27.5 209.79-27.5 209.79-3.75 214.29-2ZM238.29-27.05Q240.99-27.05 243.16-25.33 245.34-23.6 246.56-20.65 247.79-17.7 247.79-14.15L247.79-14.15Q247.79-10.3 245.44-6.93 243.09-3.55 239.56-1.53 236.04 0.5 232.74 0.5L232.74 0.5Q230.69 0.5 228.91-0.4 227.14-1.3 225.79-2.95L225.79-2.95 223.64 0 221.74 0 221.74-35.8 217.29-38.9 217.29-40.45 225.84-43.65 227.74-43.65 227.74-21.35 234.44-26.65Q236.04-27.05 238.29-27.05L238.29-27.05ZM235.64-3.7Q241.29-3.7 241.29-11.75L241.29-11.75Q241.29-16.4 239.84-19.6 238.39-22.8 235.74-22.8L235.74-22.8Q233.84-22.8 232.04-22.05 230.24-21.3 227.74-19.1L227.74-19.1 227.74-10.15Q227.74-7.4 229.79-5.55 231.84-3.7 235.64-3.7L235.64-3.7Z" opacity="1" transform="matrix(1,0,0,1,0,0)" fill="#000000" class="wordmark-text-0" data-fill-palette-color="primary" id="text-0"></path></svg></g></svg></g></svg></g></svg></g><g><svg viewBox="0 0 87.12825954549434 126.80159588319381" height="126.80159588319381" width="87.12825954549434"><g><svg xmlns:x="http://ns.adobe.com/Extensibility/1.0/" xmlns:i="http://ns.adobe.com/AdobeIllustrator/10.0/" xmlns:graph="http://ns.adobe.com/Graphs/1.0/" xmlns="http://www.w3.org/2000/svg" xmlns:xlink="http://www.w3.org/1999/xlink" version="1.1" x="0" y="0" viewBox="15.899999999999999 0.2999999999999998 68.30000000000001 99.4" enable-background="new 0 0 100 100" xml:space="preserve" height="126.80159588319381" width="87.12825954549434" class="icon-icon-0" data-fill-palette-color="accent" id="icon-0"><path d="M27.2 99.7h45.7c6.2 0 11.3-5 11.3-11.3V21c0-6.2-5-11.3-11.3-11.3H27.2c-6.2 0-11.3 5-11.3 11.3v67.4C15.9 94.6 20.9 99.7 27.2 99.7zM20.9 21c0-3.4 2.8-6.3 6.3-6.3h45.7c3.4 0 6.3 2.8 6.3 6.3v67.4c0 3.4-2.8 6.3-6.3 6.3H27.2c-3.4 0-6.3-2.8-6.3-6.3V21zM28.2 63.5h43.6c1.4 0 2.5-1.1 2.5-2.5V24.1c0-1.4-1.1-2.5-2.5-2.5H28.2c-1.4 0-2.5 1.1-2.5 2.5V61C25.7 62.3 26.8 63.5 28.2 63.5zM30.7 26.6h38.6v31.9H30.7V26.6zM57.8 77.5c1.2 1.2 1.2 3.1 0 4.3-1.2 1.2-3.1 1.2-4.3 0s-1.2-3.1 0-4.3C54.7 76.3 56.6 76.3 57.8 77.5zM70.2 77.5c1.2 1.2 1.2 3.1 0 4.3-1.2 1.2-3.1 1.2-4.3 0-1.2-1.2-1.2-3.1 0-4.3C67.1 76.3 69 76.3 70.2 77.5zM45.8 79.6c0 1.4-1.1 2.5-2.5 2.5h-3.8v3.8c0 1.4-1.1 2.5-2.5 2.5s-2.5-1.1-2.5-2.5v-3.8h-3.8c-1.4 0-2.5-1.1-2.5-2.5s1.1-2.5 2.5-2.5h3.8v-3.8c0-1.4 1.1-2.5 2.5-2.5s2.5 1.1 2.5 2.5v3.8h3.8C44.7 77.1 45.8 78.2 45.8 79.6zM64 83.7c1.2 1.2 1.2 3.1 0 4.3s-3.1 1.2-4.3 0c-1.2-1.2-1.2-3.1 0-4.3C60.9 82.5 62.8 82.5 64 83.7zM64 71.3c1.2 1.2 1.2 3.1 0 4.3-1.2 1.2-3.1 1.2-4.3 0-1.2-1.2-1.2-3.1 0-4.3C60.9 70.1 62.8 70.1 64 71.3zM28.3 2.8c0-1.4 1.1-2.5 2.5-2.5h38.4c1.4 0 2.5 1.1 2.5 2.5s-1.1 2.5-2.5 2.5H30.8C29.4 5.3 28.3 4.2 28.3 2.8z" fill="#000000" data-fill-palette-color="accent"></path></svg><g></g></g></svg></g></svg></g><defs></defs></svg><rect width="395.52" height="93.87584531894062" fill="none" stroke="none" visibility="hidden"></rect></g></svg></g></svg>